<svg width="17" height="17" viewBox="0 0 17 17" fill="none" xmlns="http://www.w3.org/2000/svg">
<path d="M2.83331 5.66663C2.83331 3.66315 2.83331 2.66142 3.45571 2.03902C4.07811 1.41663 5.07984 1.41663 7.08331 1.41663H9.91665C11.9201 1.41663 12.9218 1.41663 13.5442 2.03902C14.1666 2.66142 14.1666 3.66315 14.1666 5.66663V11.3333C14.1666 13.3367 14.1666 14.3385 13.5442 14.9609C12.9218 15.5833 11.9201 15.5833 9.91665 15.5833H7.08331C5.07984 15.5833 4.07811 15.5833 3.45571 14.9609C2.83331 14.3385 2.83331 13.3367 2.83331 11.3333V5.66663Z" stroke="white" stroke-width="1.0625"/>
<path d="M14.0943 11.3334H5.59424C4.93551 11.3334 4.60614 11.3334 4.33591 11.4058C3.60259 11.6023 3.0298 12.1751 2.83331 12.9084" stroke="white" stroke-width="1.0625"/>
<path d="M5.66669 4.95837H11.3334" stroke="white" stroke-width="1.0625" stroke-linecap="round"/>
<path d="M5.66669 7.4375H9.20835" stroke="white" stroke-width="1.0625" stroke-linecap="round"/>
</svg>
