<svg width="1920" height="1063" viewBox="0 0 1920 1063" fill="none" xmlns="http://www.w3.org/2000/svg">
<mask id="mask0_2_65" style="mask-type:alpha" maskUnits="userSpaceOnUse" x="0" y="-17" width="1920" height="1080">
<mask id="mask1_2_65" style="mask-type:luminance" maskUnits="userSpaceOnUse" x="0" y="-17" width="1920" height="1080">
<path d="M1920 -17H0V1063H1920V-17Z" fill="white"/>
</mask>
<g mask="url(#mask1_2_65)">
<g opacity="0.1">
<path d="M1894.38 1062.08V-16.8593" stroke="#727272" stroke-dasharray="6 6"/>
<path d="M1828.32 1062.08V-16.8593" stroke="#727272" stroke-dasharray="6 6"/>
<path d="M1762.27 1062.08V-16.8593" stroke="#727272" stroke-dasharray="6 6"/>
<path d="M1696.21 1062.08V-16.8593" stroke="#727272" stroke-dasharray="6 6"/>
<path d="M1630.17 1062.08V-16.8593" stroke="#727272" stroke-dasharray="6 6"/>
<path d="M1564.1 1062.08V-16.8593" stroke="#727272" stroke-dasharray="6 6"/>
<path d="M1498.04 1062.08V-16.8593" stroke="#727272" stroke-dasharray="6 6"/>
<path d="M1431.98 1062.08V-16.8593" stroke="#727272" stroke-dasharray="6 6"/>
<path d="M1365.93 1062.08V-16.8593" stroke="#727272" stroke-dasharray="6 6"/>
<path d="M1299.87 1062.08V-16.8593" stroke="#727272" stroke-dasharray="6 6"/>
<path d="M1233.81 1062.08V-16.8593" stroke="#727272" stroke-dasharray="6 6"/>
<path d="M1167.76 1062.08V-16.8593" stroke="#727272" stroke-dasharray="6 6"/>
<path d="M1101.69 1062.08V-16.8593" stroke="#727272" stroke-dasharray="6 6"/>
<path d="M1035.63 1062.08V-16.8593" stroke="#727272" stroke-dasharray="6 6"/>
<path d="M969.541 1062.09V-16.8431" stroke="#727272" stroke-dasharray="6 6"/>
<path d="M903.484 1062.09V-16.8431" stroke="#727272" stroke-dasharray="6 6"/>
<path d="M837.424 1062.09V-16.8431" stroke="#727272" stroke-dasharray="6 6"/>
<path d="M771.368 1062.09V-16.8431" stroke="#727272" stroke-dasharray="6 6"/>
<path d="M705.311 1062.09V-16.8431" stroke="#727272" stroke-dasharray="6 6"/>
<path d="M639.251 1062.09V-16.8431" stroke="#727272" stroke-dasharray="6 6"/>
<path d="M573.194 1062.09V-16.8431" stroke="#727272" stroke-dasharray="6 6"/>
<path d="M507.131 1062.09L507.132 -16.8427" stroke="#727272" stroke-dasharray="6 6"/>
<path d="M441.078 1062.09V-16.8427" stroke="#727272" stroke-dasharray="6 6"/>
<path d="M375.028 1062.09V-16.8431" stroke="#727272" stroke-dasharray="6 6"/>
<path d="M308.957 1062.09L308.958 -16.8427" stroke="#727272" stroke-dasharray="6 6"/>
<path d="M242.896 1062.09V-16.8431" stroke="#727272" stroke-dasharray="6 6"/>
<path d="M176.841 1062.09V-16.8431" stroke="#727272" stroke-dasharray="6 6"/>
<path d="M110.785 1062.09L110.785 -16.8427" stroke="#727272" stroke-dasharray="6 6"/>
<path d="M44.7372 1062.09L44.7373 -16.8431" stroke="#727272" stroke-dasharray="6 6"/>
<path d="M0.516785 1015.34L2073.42 1015.34" stroke="#727272" stroke-dasharray="6 6"/>
<path d="M0.516785 949.55H2073.42" stroke="#727272" stroke-dasharray="6 6"/>
<path d="M0.516785 883.76H2073.42" stroke="#727272" stroke-dasharray="6 6"/>
<path d="M0.516785 817.97L2073.42 817.971" stroke="#727272" stroke-dasharray="6 6"/>
<path d="M0.516785 752.181H2073.42" stroke="#727272" stroke-dasharray="6 6"/>
<path d="M0.516785 686.394H2073.42" stroke="#727272" stroke-dasharray="6 6"/>
<path d="M0.516785 620.601L2073.42 620.603" stroke="#727272" stroke-dasharray="6 6"/>
<path d="M0.516785 554.813H2073.42" stroke="#727272" stroke-dasharray="6 6"/>
<path d="M0.516785 489.026H2073.42" stroke="#727272" stroke-dasharray="6 6"/>
<path d="M0.516785 423.236L2073.42 423.237" stroke="#727272" stroke-dasharray="6 6"/>
<path d="M0.516785 357.448H2073.42" stroke="#727272" stroke-dasharray="6 6"/>
<path d="M0.516785 291.66H2073.42" stroke="#727272" stroke-dasharray="6 6"/>
<path d="M0.516785 225.87L2073.42 225.871" stroke="#727272" stroke-dasharray="6 6"/>
<path d="M0.516785 160.082H2073.42" stroke="#727272" stroke-dasharray="6 6"/>
<path d="M0.516785 94.2922L2073.42 94.2924" stroke="#727272" stroke-dasharray="6 6"/>
<path d="M0.516418 28.5057L2073.42 28.5059" stroke="#727272" stroke-dasharray="6 6"/>
</g>
</g>
</mask>
<g mask="url(#mask0_2_65)">
<path d="M960.388 1011.79C1417.89 1011.79 1788.78 792.901 1788.78 522.893C1788.78 252.885 1417.89 34 960.388 34C502.882 34 132 252.885 132 522.893C132 792.901 502.882 1011.79 960.388 1011.79Z" fill="url(#paint0_radial_2_65)"/>
</g>
<defs>
<radialGradient id="paint0_radial_2_65" cx="0" cy="0" r="1" gradientUnits="userSpaceOnUse" gradientTransform="translate(960.386 522.893) rotate(90) scale(632.029 1070.92)">
<stop stop-color="#D9D9D9"/>
<stop offset="1" stop-color="#D9D9D9" stop-opacity="0"/>
</radialGradient>
</defs>
</svg>
