<svg width="17" height="17" viewBox="0 0 17 17" fill="none" xmlns="http://www.w3.org/2000/svg">
<g clip-path="url(#clip0_1_687)">
<path fill-rule="evenodd" clip-rule="evenodd" d="M8.5 0C13.1946 0 17 3.90144 17 8.71499C17 12.5646 14.5673 15.8304 11.1919 16.9838C10.761 17.0697 10.608 16.7975 10.608 16.5655C10.608 16.2782 10.6182 15.3398 10.6182 14.1736C10.6182 13.361 10.3462 12.8306 10.0411 12.5603C11.934 12.3444 13.923 11.6074 13.923 8.26011C13.923 7.30811 13.5932 6.53125 13.0475 5.92095C13.1359 5.7008 13.4274 4.81436 12.9642 3.61416C12.9642 3.61416 12.2519 3.38064 10.6292 4.50774C9.9501 4.31479 9.2225 4.21771 8.5 4.21431C7.7775 4.21771 7.05075 4.31479 6.37245 4.50774C4.7481 3.38064 4.0341 3.61416 4.0341 3.61416C3.57255 4.81436 3.8641 5.7008 3.95165 5.92095C3.4085 6.53125 3.07615 7.30811 3.07615 8.26011C3.07615 11.5989 5.0609 12.3472 6.94875 12.5674C6.70565 12.785 6.4855 13.1688 6.409 13.7324C5.9245 13.9551 4.6937 14.3405 3.9355 13.0086C3.9355 13.0086 3.48585 12.1712 2.63245 12.11C2.63245 12.11 1.8037 12.099 2.57465 12.6396C2.57465 12.6396 3.1314 12.9073 3.51815 13.9146C3.51815 13.9146 4.0171 15.4701 6.3818 14.9431C6.38605 15.6715 6.3937 16.3581 6.3937 16.5655C6.3937 16.7958 6.2373 17.0654 5.81315 16.9846C2.43525 15.8329 0 12.5655 0 8.71499C0 3.90144 3.8063 0 8.5 0Z" fill="#9CA9BD"/>
</g>
<defs>
<clipPath id="clip0_1_687">
<rect width="17" height="17" fill="white"/>
</clipPath>
</defs>
</svg>
